<?xml version="1.0" encoding="UTF-8"?>
<svg xmlns="http://www.w3.org/2000/svg" xmlns:xlink="http://www.w3.org/1999/xlink" width="379px" height="400px" viewBox="0 0 379 399" version="1.1">
<g id="surface1">
<path style=" stroke:none;fill-rule:nonzero;fill:rgb(62.745098%,38.039216%,41.568627%);fill-opacity:1;" d="M 197.167969 316.515625 L 184.796875 315.835938 L 186.5 353.71875 L 194.882812 354.179688 Z M 197.167969 316.515625 "/>
<path style=" stroke:none;fill-rule:nonzero;fill:rgb(18.431373%,18.039216%,25.490196%);fill-opacity:1;" d="M 185.402344 341.742188 L 189.703125 343.6875 L 189.703125 346.289062 C 189.703125 346.289062 190.730469 343.277344 196.292969 342.609375 L 196.960938 345.128906 C 196.960938 345.128906 199.125 347.59375 198.761719 352.0625 L 197.371094 364.035156 L 193.179688 363.949219 L 192.484375 355.621094 C 192.484375 355.621094 191.324219 353.734375 186.019531 362.726562 C 186.019531 362.726562 184.066406 365.699219 174.980469 362.679688 C 173.730469 362.265625 172.863281 361.105469 172.875 359.789062 C 172.882812 359.066406 173.164062 358.394531 174.074219 358.152344 C 176.390625 357.535156 178.65625 358.308594 180.152344 356.457031 C 181.644531 354.609375 185.402344 341.742188 185.402344 341.742188 Z M 185.402344 341.742188 "/>
<path style=" stroke:none;fill-rule:nonzero;fill:rgb(62.745098%,38.039216%,41.568627%);fill-opacity:1;" d="M 166.199219 351.273438 L 153.828125 350.597656 L 155.53125 388.476562 L 163.914062 388.9375 Z M 166.199219 351.273438 "/>
<path style=" stroke:none;fill-rule:nonzero;fill:rgb(18.431373%,18.039216%,25.490196%);fill-opacity:1;" d="M 154.433594 376.5 L 158.730469 378.449219 L 158.730469 381.046875 C 158.730469 381.046875 159.761719 378.035156 165.324219 377.367188 L 165.992188 379.886719 C 165.992188 379.886719 168.15625 382.351562 167.792969 386.824219 L 166.402344 398.796875 L 162.210938 398.707031 L 161.515625 390.378906 C 161.515625 390.378906 160.355469 388.492188 155.050781 397.484375 C 155.050781 397.484375 153.097656 400.457031 144.011719 397.4375 C 142.761719 397.023438 141.890625 395.863281 141.90625 394.550781 C 141.914062 393.824219 142.195312 393.152344 143.105469 392.910156 C 145.421875 392.296875 147.6875 393.066406 149.179688 391.214844 C 150.675781 389.367188 154.433594 376.5 154.433594 376.5 Z M 154.433594 376.5 "/>
<path style=" stroke:none;fill-rule:nonzero;fill:rgb(94.901961%,94.901961%,94.901961%);fill-opacity:1;" d="M 321.4375 238.078125 C 320.886719 237.15625 318.511719 238.144531 318.078125 237.304688 C 317.640625 236.46875 319.847656 235.199219 321.109375 232.289062 C 321.335938 231.765625 322.769531 228.464844 321.707031 227.445312 C 319.699219 225.511719 310.5 233.484375 307.28125 230.875 C 306.574219 230.304688 306.082031 229.160156 303.945312 227.304688 C 303.09375 226.566406 302.578125 226.230469 302.082031 226.355469 C 301.375 226.53125 301.320312 227.476562 300.5625 229.328125 C 299.425781 232.113281 298.753906 231.945312 298.09375 234.164062 C 297.601562 235.808594 297.714844 236.769531 297.136719 236.953125 C 296.316406 237.21875 295.566406 235.472656 294.527344 235.628906 C 293.472656 235.789062 292.832031 237.820312 292.628906 239.34375 C 292.25 242.203125 293.300781 244.089844 293.886719 246.074219 C 294.519531 248.230469 294.894531 251.507812 293.429688 256.148438 L 278.949219 296.867188 C 282.148438 288.511719 291.402344 265.605469 295.292969 257.09375 C 296.417969 254.636719 297.65625 252.144531 300.203125 251.160156 C 302.652344 250.214844 306.019531 250.78125 310.3125 249.75 C 310.8125 249.628906 312.203125 249.273438 312.378906 248.457031 C 312.523438 247.785156 311.707031 247.40625 311.832031 246.773438 C 312 245.925781 313.609375 245.917969 315.585938 244.9375 C 316.980469 244.246094 317.847656 243.425781 318.59375 242.722656 C 318.820312 242.507812 322.167969 239.308594 321.4375 238.078125 Z M 321.4375 238.078125 "/>
<path style=" stroke:none;fill-rule:nonzero;fill:rgb(94.901961%,94.901961%,94.901961%);fill-opacity:1;" d="M 264.460938 259.515625 C 263.847656 259.519531 263.648438 260.96875 263.109375 260.9375 C 262.574219 260.910156 262.585938 259.464844 261.519531 258.007812 C 261.328125 257.746094 260.113281 256.089844 259.308594 256.316406 C 257.777344 256.742188 259.046875 263.546875 256.832031 264.371094 C 256.347656 264.550781 255.644531 264.464844 254.113281 264.976562 C 253.503906 265.179688 253.191406 265.335938 253.109375 265.613281 C 252.992188 266.011719 253.441406 266.3125 254.132812 267.214844 C 255.175781 268.574219 254.898438 268.855469 255.796875 269.820312 C 256.46875 270.535156 256.96875 270.757812 256.894531 271.09375 C 256.789062 271.570312 255.710938 271.4375 255.492188 271.988281 C 255.265625 272.554688 256.078125 273.453125 256.769531 273.992188 C 258.066406 275.003906 259.296875 275.03125 260.441406 275.316406 C 261.683594 275.628906 263.40625 276.390625 265.265625 278.445312 L 281.113281 297.289062 C 277.925781 293.3125 269.332031 282.167969 266.269531 277.808594 C 265.382812 276.550781 264.515625 275.222656 264.765625 273.691406 C 265.007812 272.21875 266.257812 270.730469 266.988281 268.332031 C 267.074219 268.050781 267.300781 267.269531 266.949219 266.949219 C 266.660156 266.683594 266.238281 266.972656 265.964844 266.730469 C 265.597656 266.402344 266.054688 265.613281 266.144531 264.359375 C 266.207031 263.480469 266.054688 262.816406 265.921875 262.246094 C 265.882812 262.074219 265.277344 259.511719 264.460938 259.515625 Z M 264.460938 259.515625 "/>
<path style=" stroke:none;fill-rule:nonzero;fill:rgb(94.901961%,94.901961%,94.901961%);fill-opacity:1;" d="M 276.679688 262.253906 L 276.3125 258.964844 L 276.480469 258.714844 C 277.261719 257.5625 277.660156 256.4375 277.664062 255.371094 C 277.664062 255.199219 277.65625 255.03125 277.648438 254.855469 C 277.617188 254.171875 277.578125 253.320312 278.023438 252.324219 C 278.273438 251.769531 278.972656 250.488281 280.027344 250.644531 C 280.3125 250.6875 280.527344 250.816406 280.691406 250.96875 C 280.714844 250.929688 280.738281 250.890625 280.765625 250.851562 C 281.09375 250.351562 281.355469 250.136719 281.605469 249.929688 C 281.796875 249.773438 281.996094 249.609375 282.308594 249.222656 C 282.445312 249.050781 282.550781 248.902344 282.640625 248.777344 C 282.914062 248.398438 283.269531 247.945312 283.898438 247.953125 C 284.570312 247.984375 284.921875 248.539062 285.15625 248.90625 C 285.570312 249.558594 285.757812 250.03125 285.882812 250.34375 C 285.929688 250.457031 285.980469 250.585938 286.007812 250.625 C 286.222656 250.945312 287.980469 250.644531 288.644531 250.539062 C 290.132812 250.289062 291.421875 250.078125 291.953125 251.011719 C 292.332031 251.683594 292.050781 252.570312 291.085938 253.71875 C 290.785156 254.074219 290.46875 254.347656 290.183594 254.558594 C 290.417969 254.699219 290.628906 254.914062 290.714844 255.25 C 290.914062 256.046875 290.230469 256.84375 288.675781 257.625 C 288.289062 257.820312 287.769531 258.082031 287.042969 258.207031 C 286.699219 258.265625 286.390625 258.28125 286.125 258.289062 C 286.121094 258.441406 286.085938 258.605469 285.992188 258.777344 C 285.71875 259.277344 285.152344 259.515625 284.296875 259.457031 C 283.355469 259.40625 282.578125 259.226562 281.894531 259.070312 C 281.296875 258.933594 280.78125 258.820312 280.378906 258.84375 C 279.628906 258.90625 279.050781 259.503906 278.375 260.28125 Z M 276.679688 262.253906 "/>
<path style=" stroke:none;fill-rule:nonzero;fill:rgb(94.901961%,94.901961%,94.901961%);fill-opacity:1;" d="M 278.394531 242.675781 L 275.300781 243.867188 L 275.015625 243.765625 C 273.699219 243.304688 272.507812 243.207031 271.472656 243.472656 C 271.308594 243.515625 271.144531 243.566406 270.976562 243.617188 C 270.320312 243.824219 269.503906 244.078125 268.429688 243.902344 C 267.828125 243.800781 266.40625 243.449219 266.292969 242.390625 C 266.261719 242.105469 266.332031 241.863281 266.4375 241.667969 C 266.394531 241.65625 266.351562 241.640625 266.304688 241.625 C 265.738281 241.4375 265.464844 241.238281 265.199219 241.050781 C 264.996094 240.90625 264.789062 240.753906 264.332031 240.550781 C 264.132812 240.460938 263.960938 240.398438 263.820312 240.34375 C 263.382812 240.175781 262.851562 239.945312 262.699219 239.335938 C 262.5625 238.679688 263.007812 238.199219 263.304688 237.882812 C 263.832031 237.316406 264.242188 237.015625 264.515625 236.8125 C 264.613281 236.742188 264.726562 236.660156 264.757812 236.625 C 265.011719 236.335938 264.277344 234.710938 264.003906 234.097656 C 263.386719 232.726562 262.851562 231.535156 263.625 230.785156 C 264.179688 230.25 265.109375 230.296875 266.464844 230.9375 C 266.886719 231.132812 267.230469 231.375 267.507812 231.59375 C 267.585938 231.332031 267.738281 231.074219 268.042969 230.90625 C 268.765625 230.511719 269.714844 230.972656 270.867188 232.273438 C 271.152344 232.59375 271.535156 233.03125 271.84375 233.703125 C 271.988281 234.015625 272.078125 234.3125 272.152344 234.566406 C 272.304688 234.53125 272.472656 234.523438 272.660156 234.570312 C 273.214844 234.707031 273.589844 235.195312 273.75 236.035156 C 273.941406 236.957031 273.964844 237.75 273.984375 238.453125 C 274.003906 239.0625 274.023438 239.589844 274.152344 239.972656 C 274.402344 240.679688 275.128906 241.085938 276.050781 241.542969 Z M 278.394531 242.675781 "/>
<path style=" stroke:none;fill-rule:nonzero;fill:rgb(94.901961%,94.901961%,94.901961%);fill-opacity:1;" d="M 276.679688 232.988281 L 276.3125 229.703125 L 276.480469 229.453125 C 277.261719 228.300781 277.660156 227.175781 277.664062 226.105469 C 277.664062 225.933594 277.65625 225.765625 277.648438 225.59375 C 277.617188 224.90625 277.578125 224.054688 278.023438 223.058594 C 278.273438 222.507812 278.972656 221.222656 280.027344 221.382812 C 280.3125 221.421875 280.527344 221.550781 280.691406 221.703125 C 280.714844 221.667969 280.738281 221.628906 280.765625 221.585938 C 281.09375 221.085938 281.355469 220.871094 281.605469 220.664062 C 281.796875 220.507812 281.996094 220.34375 282.308594 219.957031 C 282.445312 219.785156 282.550781 219.636719 282.640625 219.511719 C 282.914062 219.132812 283.269531 218.679688 283.898438 218.6875 C 284.570312 218.71875 284.921875 219.273438 285.15625 219.640625 C 285.570312 220.292969 285.757812 220.765625 285.882812 221.078125 C 285.929688 221.191406 285.980469 221.320312 286.007812 221.363281 C 286.222656 221.679688 287.980469 221.382812 288.644531 221.273438 C 290.132812 221.027344 291.421875 220.8125 291.953125 221.75 C 292.332031 222.417969 292.050781 223.304688 291.085938 224.453125 C 290.785156 224.808594 290.46875 225.082031 290.183594 225.292969 C 290.417969 225.433594 290.628906 225.648438 290.714844 225.984375 C 290.914062 226.78125 290.230469 227.582031 288.675781 228.363281 C 288.289062 228.558594 287.769531 228.816406 287.042969 228.941406 C 286.699219 229 286.390625 229.015625 286.125 229.023438 C 286.121094 229.175781 286.085938 229.339844 285.992188 229.511719 C 285.71875 230.011719 285.152344 230.25 284.296875 230.191406 C 283.355469 230.144531 282.578125 229.964844 281.894531 229.804688 C 281.296875 229.667969 280.78125 229.554688 280.378906 229.582031 C 279.628906 229.640625 279.050781 230.238281 278.375 231.015625 Z M 276.679688 232.988281 "/>
<path style=" stroke:none;fill-rule:nonzero;fill:rgb(94.901961%,94.901961%,94.901961%);fill-opacity:1;" d="M 280.050781 296.816406 L 279.363281 296.382812 L 279.195312 295.589844 L 279.363281 296.382812 L 278.558594 296.476562 C 278.542969 296.402344 278.5 296.230469 278.433594 295.960938 C 278.074219 294.492188 276.976562 290.015625 276.058594 282.96875 C 275.417969 278.050781 275.058594 272.996094 274.984375 267.9375 C 274.910156 262.875 275.148438 259.039062 275.339844 255.957031 C 275.488281 253.632812 275.664062 251.417969 275.835938 249.261719 C 276.296875 243.503906 276.734375 238.0625 276.410156 232.039062 C 276.335938 230.695312 276.1875 227.894531 274.546875 224.917969 C 273.597656 223.1875 272.289062 221.65625 270.65625 220.359375 L 271.671875 219.085938 C 273.472656 220.519531 274.921875 222.21875 275.976562 224.136719 C 277.792969 227.4375 277.957031 230.488281 278.035156 231.953125 C 278.367188 238.082031 277.925781 243.578125 277.460938 249.390625 C 277.289062 251.539062 277.113281 253.742188 276.96875 256.058594 C 276.777344 259.113281 276.539062 262.914062 276.613281 267.914062 C 276.683594 272.910156 277.042969 277.902344 277.675781 282.761719 C 278.578125 289.71875 279.660156 294.125 280.015625 295.574219 C 280.207031 296.347656 280.246094 296.507812 280.050781 296.816406 Z M 280.050781 296.816406 "/>
<path style=" stroke:none;fill-rule:nonzero;fill:rgb(94.901961%,94.901961%,94.901961%);fill-opacity:1;" d="M 267.667969 222.941406 C 267.601562 222.941406 267.535156 222.941406 267.464844 222.9375 C 266.078125 222.863281 264.792969 222.03125 263.648438 220.472656 C 263.109375 219.742188 262.835938 218.902344 262.285156 217.234375 C 262.199219 216.976562 261.785156 215.671875 261.535156 213.878906 C 261.371094 212.703125 261.390625 212.214844 261.625 211.78125 C 261.882812 211.296875 262.300781 210.960938 262.773438 210.734375 C 262.75 210.578125 262.769531 210.417969 262.835938 210.253906 C 263.113281 209.574219 263.851562 209.664062 264.25 209.707031 C 264.453125 209.734375 264.703125 209.765625 264.976562 209.753906 C 265.40625 209.730469 265.636719 209.605469 265.984375 209.414062 C 266.316406 209.230469 266.730469 209.003906 267.347656 208.878906 C 268.558594 208.625 269.574219 208.96875 269.910156 209.082031 C 271.671875 209.667969 272.539062 211.035156 273.542969 212.617188 C 273.746094 212.933594 274.433594 214.089844 274.886719 215.675781 C 275.214844 216.820312 275.167969 217.328125 275.070312 217.703125 C 274.871094 218.480469 274.398438 218.925781 273.195312 219.90625 C 271.941406 220.933594 271.308594 221.449219 270.769531 221.761719 C 269.507812 222.488281 268.71875 222.941406 267.667969 222.941406 Z M 267.667969 222.941406 "/>
<path style=" stroke:none;fill-rule:nonzero;fill:rgb(100%,71.372549%,71.372549%);fill-opacity:1;" d="M 94.921875 292.96875 L 102.628906 292.96875 L 106.296875 263.292969 L 94.917969 263.292969 Z M 94.921875 292.96875 "/>
<path style=" stroke:none;fill-rule:nonzero;fill:rgb(18.431373%,18.039216%,25.490196%);fill-opacity:1;" d="M 121.335938 292.796875 C 121.574219 293.199219 121.703125 294.5 121.703125 294.972656 C 121.703125 296.414062 120.53125 297.582031 119.085938 297.582031 L 95.210938 297.582031 C 94.222656 297.582031 93.425781 296.785156 93.425781 295.800781 L 93.425781 294.808594 C 93.425781 294.808594 92.242188 291.828125 94.675781 288.152344 C 94.675781 288.152344 97.699219 291.03125 102.214844 286.523438 L 103.546875 284.117188 L 113.183594 291.152344 L 118.527344 291.808594 C 119.695312 291.949219 120.734375 291.785156 121.335938 292.796875 Z M 121.335938 292.796875 "/>
<path style=" stroke:none;fill-rule:nonzero;fill:rgb(100%,71.372549%,71.372549%);fill-opacity:1;" d="M 65.667969 292.96875 L 73.378906 292.96875 L 77.042969 263.292969 L 65.664062 263.292969 Z M 65.667969 292.96875 "/>
<path style=" stroke:none;fill-rule:nonzero;fill:rgb(18.431373%,18.039216%,25.490196%);fill-opacity:1;" d="M 92.082031 292.796875 C 92.320312 293.199219 92.449219 294.5 92.449219 294.972656 C 92.449219 296.414062 91.277344 297.582031 89.832031 297.582031 L 65.957031 297.582031 C 64.96875 297.582031 64.171875 296.785156 64.171875 295.800781 L 64.171875 294.808594 C 64.171875 294.808594 62.988281 291.828125 65.421875 288.152344 C 65.421875 288.152344 68.445312 291.03125 72.960938 286.523438 L 74.292969 284.117188 L 83.929688 291.152344 L 89.273438 291.808594 C 90.441406 291.949219 91.480469 291.785156 92.082031 292.796875 Z M 92.082031 292.796875 "/>
<path style=" stroke:none;fill-rule:nonzero;fill:rgb(18.431373%,18.039216%,25.490196%);fill-opacity:1;" d="M 59.988281 133.554688 L 50.238281 155.613281 L 62.589844 276.285156 L 77.867188 277.261719 L 84.042969 170.535156 L 89.894531 277.585938 L 108.097656 275.636719 L 112.414062 139.742188 Z M 59.988281 133.554688 "/>
<path style=" stroke:none;fill-rule:nonzero;fill:rgb(80%,80%,80%);fill-opacity:1;" d="M 98.410156 45.644531 L 78.84375 42.078125 L 74.890625 46.019531 L 54.789062 54.402344 L 58.039062 117.335938 C 58.039062 117.335938 51.539062 121.65625 54.789062 127.605469 C 58.039062 133.554688 57.390625 140.691406 57.390625 140.691406 L 112.414062 140.691406 L 110.046875 105.007812 L 116.546875 59.59375 L 101.355469 52.417969 Z M 98.410156 45.644531 "/>
<path style=" stroke:none;fill-rule:nonzero;fill:rgb(100%,71.372549%,71.372549%);fill-opacity:1;" d="M 84.226562 118.964844 C 89.785156 120.289062 94.976562 118.5 95.820312 114.96875 C 96.664062 111.4375 92.84375 107.503906 87.28125 106.179688 C 85.066406 105.617188 82.75 105.597656 80.527344 106.113281 L 56.902344 100.800781 L 54.640625 111.917969 L 78.167969 115.976562 C 79.921875 117.441406 81.996094 118.464844 84.226562 118.964844 Z M 84.226562 118.964844 "/>
<path style=" stroke:none;fill-rule:nonzero;fill:rgb(80%,80%,80%);fill-opacity:1;" d="M 58.691406 57.648438 L 54.789062 54.402344 C 54.789062 54.402344 46.988281 58.296875 45.6875 61.539062 C 44.386719 64.785156 36.585938 95.925781 36.585938 95.925781 C 36.585938 95.925781 35.054688 112.992188 39.070312 115.164062 C 43.085938 117.335938 68.441406 116.039062 68.441406 116.039062 L 70.390625 103.0625 L 59.988281 99.167969 Z M 58.691406 57.648438 "/>
<path style=" stroke:none;fill-rule:nonzero;fill:rgb(100%,71.372549%,71.372549%);fill-opacity:1;" d="M 107.039062 23.085938 C 107.039062 32.558594 99.34375 40.234375 89.855469 40.234375 C 80.363281 40.234375 72.671875 32.558594 72.671875 23.085938 C 72.671875 13.613281 80.363281 5.9375 89.855469 5.9375 C 99.34375 5.9375 107.039062 13.613281 107.039062 23.085938 Z M 107.039062 23.085938 "/>
<path style=" stroke:none;fill-rule:nonzero;fill:rgb(18.431373%,18.039216%,25.490196%);fill-opacity:1;" d="M 77.53125 38.308594 C 75.472656 38.492188 72.109375 33.238281 72.261719 28.148438 C 72.355469 24.875 69.507812 24.230469 69.296875 20.007812 C 69.171875 17.546875 72.960938 16.78125 73.21875 14.804688 C 73.691406 11.230469 76.003906 8.824219 76.292969 8.53125 C 78.78125 6.007812 80.542969 6.828125 83.472656 3.902344 C 85.234375 2.140625 84.78125 1.65625 85.96875 0.875 C 89.398438 -1.378906 95.558594 1.0625 99.242188 4.355469 C 100.515625 5.496094 105.269531 4.25 107.34375 7.46875 C 109.789062 11.257812 109.222656 18.988281 108.171875 20.011719 C 107.535156 20.628906 106.082031 19.117188 102.136719 18.144531 C 98.488281 17.242188 101.929688 21.695312 97.710938 20.949219 C 92.71875 20.0625 91.742188 18.550781 89.875 19.457031 C 87.898438 20.417969 86.351562 23.394531 86.800781 25.730469 C 87.023438 26.894531 87.667969 27.539062 87.304688 28.128906 C 86.640625 29.207031 85.878906 28.152344 85.027344 29.230469 C 84.039062 30.488281 86.5 33.714844 86.035156 34.027344 C 85.941406 34.089844 85.660156 34.082031 83.003906 31.53125 C 81.941406 30.515625 81.632812 29.890625 81.425781 29.984375 C 81.089844 30.140625 78.886719 32.1875 79.726562 33.804688 C 81.035156 36.320312 79.363281 36.398438 79.726562 38.09375 C 80.105469 39.839844 78.835938 38.195312 77.53125 38.308594 Z M 77.53125 38.308594 "/>
<path style=" stroke:none;fill-rule:nonzero;fill:rgb(24.705882%,23.921569%,33.72549%);fill-opacity:1;" d="M 73.964844 90.410156 L 71.367188 92.359375 L 85.019531 111.171875 L 87.617188 110.523438 Z M 73.964844 90.410156 "/>
<path style=" stroke:none;fill-rule:nonzero;fill:rgb(100%,100%,100%);fill-opacity:1;" d="M 109.070312 107.632812 L 109.070312 140.472656 C 109.070312 143.375 106.703125 145.738281 103.792969 145.738281 L 70.890625 145.738281 C 67.980469 145.738281 65.613281 143.375 65.613281 140.472656 L 65.613281 107.632812 C 65.613281 104.730469 67.980469 102.367188 70.890625 102.367188 L 103.792969 102.367188 C 106.703125 102.367188 109.070312 104.730469 109.070312 107.632812 Z M 109.070312 107.632812 "/>
<path style=" stroke:none;fill-rule:nonzero;fill:rgb(24.705882%,23.921569%,33.72549%);fill-opacity:1;" d="M 91.722656 115.777344 L 81.101562 115.777344 C 80.832031 115.777344 80.613281 115.5625 80.613281 115.292969 C 80.613281 115.027344 80.832031 114.808594 81.101562 114.808594 L 91.722656 114.808594 C 91.992188 114.808594 92.207031 115.027344 92.207031 115.292969 C 92.207031 115.5625 91.992188 115.777344 91.722656 115.777344 Z M 91.722656 115.777344 "/>
<path style=" stroke:none;fill-rule:nonzero;fill:rgb(24.705882%,23.921569%,33.72549%);fill-opacity:1;" d="M 91.722656 126.113281 L 81.101562 126.113281 C 80.832031 126.113281 80.613281 125.898438 80.613281 125.628906 C 80.613281 125.363281 80.832031 125.144531 81.101562 125.144531 L 91.722656 125.144531 C 91.992188 125.144531 92.207031 125.363281 92.207031 125.628906 C 92.207031 125.898438 91.992188 126.113281 91.722656 126.113281 Z M 91.722656 126.113281 "/>
<path style=" stroke:none;fill-rule:nonzero;fill:rgb(24.705882%,23.921569%,33.72549%);fill-opacity:1;" d="M 86.445312 140.363281 L 75.824219 140.363281 C 75.554688 140.363281 75.335938 140.148438 75.335938 139.878906 C 75.335938 139.613281 75.554688 139.394531 75.824219 139.394531 L 86.445312 139.394531 C 86.714844 139.394531 86.929688 139.613281 86.929688 139.878906 C 86.929688 140.148438 86.714844 140.363281 86.445312 140.363281 Z M 86.445312 140.363281 "/>
<path style=" stroke:none;fill-rule:nonzero;fill:rgb(24.705882%,23.921569%,33.72549%);fill-opacity:1;" d="M 97.421875 120.949219 L 75.398438 120.949219 C 75.132812 120.949219 74.914062 120.734375 74.914062 120.464844 C 74.914062 120.199219 75.132812 119.980469 75.398438 119.980469 L 97.421875 119.980469 C 97.691406 119.980469 97.910156 120.199219 97.910156 120.464844 C 97.910156 120.734375 97.691406 120.949219 97.421875 120.949219 Z M 97.421875 120.949219 "/>
<path style=" stroke:none;fill-rule:nonzero;fill:rgb(100%,71.372549%,71.372549%);fill-opacity:1;" d="M 95.796875 121.632812 C 90.730469 124.273438 87.988281 129.019531 89.671875 132.238281 C 91.355469 135.453125 96.824219 135.921875 101.894531 133.28125 C 103.933594 132.253906 105.695312 130.753906 107.035156 128.910156 L 128.359375 117.457031 L 122.761719 107.585938 L 102.332031 119.921875 C 100.046875 119.964844 97.808594 120.550781 95.796875 121.632812 Z M 95.796875 121.632812 "/>
<path style=" stroke:none;fill-rule:nonzero;fill:rgb(80%,80%,80%);fill-opacity:1;" d="M 112.648438 60.242188 C 112.648438 60.242188 118.496094 56.351562 122.398438 66.730469 C 125.476562 74.921875 131.183594 99.058594 133.453125 108.886719 C 134.058594 111.492188 133.183594 114.21875 131.179688 115.996094 L 128.574219 118.308594 L 115.898438 127.714844 L 107.253906 115.164062 L 117.75 108.847656 L 105.78125 82.929688 Z M 112.648438 60.242188 "/>
<path style=" stroke:none;fill-rule:nonzero;fill:rgb(90.196078%,90.196078%,90.196078%);fill-opacity:1;" d="M 379.027344 297.375 C 379.027344 297.675781 378.78125 297.917969 378.480469 297.917969 L 0 297.917969 L 0 296.828125 L 378.480469 296.828125 C 378.78125 296.828125 379.027344 297.074219 379.027344 297.375 Z M 379.027344 297.375 "/>
<path style=" stroke:none;fill-rule:nonzero;fill:rgb(62.745098%,38.039216%,41.568627%);fill-opacity:1;" d="M 173.945312 294.417969 C 174.082031 293.046875 173.890625 291.667969 173.382812 290.386719 L 175.523438 276.167969 L 168.714844 275.351562 L 167.277344 289.859375 C 166.558594 291.035156 166.128906 292.363281 166.03125 293.734375 C 165.734375 297.164062 167.265625 300.09375 169.453125 300.28125 C 171.636719 300.472656 173.648438 297.84375 173.945312 294.417969 Z M 173.945312 294.417969 "/>
<path style=" stroke:none;fill-rule:nonzero;fill:rgb(32.54902%,42.745098%,99.607843%);fill-opacity:1;" d="M 193.652344 210.421875 L 188.03125 239.882812 L 181.0625 255.339844 L 176.914062 285.140625 L 166.25 288.363281 L 169.59375 250.574219 C 169.59375 250.574219 180.363281 215.460938 183.25 211.882812 C 186.140625 208.308594 193.652344 210.421875 193.652344 210.421875 Z M 193.652344 210.421875 "/>
<path style=" stroke:none;fill-rule:nonzero;fill:rgb(18.431373%,18.039216%,25.490196%);fill-opacity:1;" d="M 192.296875 204.316406 L 199.0625 182.289062 L 222.339844 189.410156 L 215.574219 211.4375 Z M 192.296875 204.316406 "/>
<path style=" stroke:none;fill-rule:nonzero;fill:rgb(62.745098%,38.039216%,41.568627%);fill-opacity:1;" d="M 222.851562 185.820312 C 222.851562 192.363281 217.535156 197.667969 210.980469 197.667969 C 204.425781 197.667969 199.109375 192.363281 199.109375 185.820312 C 199.109375 179.277344 204.425781 173.972656 210.980469 173.972656 C 217.535156 173.972656 222.851562 179.277344 222.851562 185.820312 Z M 222.851562 185.820312 "/>
<path style=" stroke:none;fill-rule:nonzero;fill:rgb(18.431373%,18.039216%,25.490196%);fill-opacity:1;" d="M 221.980469 169.144531 C 218.324219 167.378906 211.414062 168.207031 208.941406 168.476562 C 206.734375 168.722656 205.203125 170 203.695312 171.253906 C 200.28125 174.109375 198.78125 177.582031 198.304688 178.808594 C 196.042969 184.59375 198.269531 187.027344 195.90625 189.464844 C 193.378906 192.078125 189.832031 190.308594 188.289062 192.832031 C 186.886719 195.121094 189.484375 197.125 188.480469 200.777344 C 187.324219 204.992188 182.882812 205.917969 183.335938 207.527344 C 183.839844 209.3125 189.84375 210.0625 194.632812 207.917969 C 195.277344 207.628906 200.953125 204.996094 201.226562 200.734375 C 201.40625 198 199.15625 197.714844 198.535156 193.777344 C 198.105469 191.035156 198.800781 188.707031 199.914062 184.996094 C 200.691406 182.410156 201.078125 181.117188 201.917969 179.910156 C 202.320312 179.332031 206.121094 174.050781 211.757812 175.035156 C 216.722656 175.90625 220.0625 181.109375 219.417969 184.390625 C 219.039062 186.328125 217.234375 187.789062 217.941406 189.195312 C 218.46875 190.234375 219.8125 190.164062 219.980469 191.136719 C 220.140625 192.046875 219.105469 192.984375 218.316406 193.691406 C 217.324219 194.589844 216.433594 195.019531 216.097656 195.203125 C 213.707031 196.535156 212.820312 200.5 212.835938 202.96875 C 212.855469 206.652344 214.902344 211.1875 219.046875 212.757812 C 223.707031 214.523438 229.386719 211.9375 229.601562 209.851562 C 229.722656 208.640625 227.9375 208.261719 227.652344 206.1875 C 227.328125 203.847656 229.378906 202.710938 228.726562 201.257812 C 228.136719 199.945312 228.996094 201.820312 227.367188 199.96875 C 227.167969 199.742188 226.117188 198.503906 226.097656 196.949219 C 226.074219 194.925781 227.816406 193.585938 228.777344 192.511719 C 232.378906 188.484375 232.949219 180.886719 229.613281 177.175781 C 227.71875 175.066406 228.890625 172.484375 221.980469 169.144531 Z M 221.980469 169.144531 "/>
<path style=" stroke:none;fill-rule:nonzero;fill:rgb(18.431373%,18.039216%,25.490196%);fill-opacity:1;" d="M 223.71875 180.628906 C 224.792969 178.203125 221.957031 175.113281 221.585938 174.71875 C 218.816406 171.777344 214.839844 171.671875 212.878906 171.617188 C 211.164062 171.570312 207.484375 171.472656 204.703125 173.9375 C 203.199219 175.269531 201.792969 177.492188 202.421875 178.496094 C 202.808594 179.109375 203.925781 179.140625 206.160156 179.203125 C 208.167969 179.253906 208.894531 178.992188 210.015625 179.503906 C 210.847656 179.886719 211.050781 180.304688 211.777344 180.921875 C 213.742188 182.585938 216.15625 182.839844 216.871094 182.917969 C 218.558594 183.09375 222.664062 183.019531 223.71875 180.628906 Z M 223.71875 180.628906 "/>
<path style=" stroke:none;fill-rule:nonzero;fill:rgb(32.54902%,42.745098%,99.607843%);fill-opacity:1;" d="M 195.390625 207.8125 L 185.324219 210.902344 L 186.097656 220.175781 L 183 277.363281 L 234.878906 278.910156 L 235.542969 273.585938 L 230.234375 254.421875 L 232.558594 216.3125 L 217.84375 208.585938 L 213.972656 200.855469 L 200.035156 200.085938 Z M 195.390625 207.8125 "/>
<path style=" stroke:none;fill-rule:nonzero;fill:rgb(18.431373%,18.039216%,25.490196%);fill-opacity:1;" d="M 218.230469 267.703125 L 182.613281 278.523438 C 182.613281 278.523438 161.097656 284.667969 149.484375 290.847656 C 137.867188 297.03125 139.25 302.640625 139.25 302.640625 L 153.960938 368.328125 L 167.898438 369.101562 L 166.007812 308.675781 L 181.0625 306.628906 L 183.386719 328.753906 L 195.777344 331.84375 L 208.164062 289.34375 C 209.054688 294.671875 214 298.347656 219.367188 297.667969 C 223.851562 297.101562 229.328125 296.234375 234.492188 294.945312 C 246.109375 292.050781 234.492188 271.566406 234.492188 271.566406 Z M 218.230469 267.703125 "/>
<path style=" stroke:none;fill-rule:nonzero;fill:rgb(18.431373%,18.039216%,25.490196%);fill-opacity:1;" d="M 181.449219 300.546875 C 181.449219 300.546875 183.773438 282 187.644531 261.136719 C 191.515625 240.269531 205.457031 245.679688 205.457031 245.679688 L 230.234375 271.953125 L 210.101562 285.089844 Z M 181.449219 300.546875 "/>
<path style=" stroke:none;fill-rule:nonzero;fill:rgb(62.745098%,38.039216%,41.568627%);fill-opacity:1;" d="M 202.464844 280.507812 C 203.484375 279.582031 204.261719 278.421875 204.738281 277.132812 L 215.832031 267.960938 L 211.308594 262.820312 L 200.539062 272.675781 C 199.21875 273.070312 198.015625 273.777344 197.023438 274.730469 C 194.511719 277.089844 193.695312 280.292969 195.195312 281.890625 C 196.699219 283.484375 199.953125 282.867188 202.464844 280.507812 Z M 202.464844 280.507812 "/>
<path style=" stroke:none;fill-rule:nonzero;fill:rgb(32.54902%,42.745098%,99.607843%);fill-opacity:1;" d="M 211.679688 229.445312 L 220.542969 246.671875 L 205.328125 266.253906 L 212.988281 274.253906 L 232.023438 258.234375 L 240.953125 249.84375 C 244.191406 246.796875 242.507812 242.785156 240.902344 238.644531 C 234.492188 222.109375 236.042969 215.925781 229.847656 214.382812 C 224.808594 213.125 211.679688 229.445312 211.679688 229.445312 Z M 211.679688 229.445312 "/>
<path style=" stroke:none;fill-rule:nonzero;fill:rgb(90.196078%,90.196078%,90.196078%);fill-opacity:1;" d="M 171.085938 261.871094 L 172.535156 257.824219 L 199.480469 262.449219 L 222.367188 250.882812 L 223.527344 254.066406 L 198.609375 268.8125 Z M 171.085938 261.871094 "/>
<path style=" stroke:none;fill-rule:nonzero;fill:rgb(24.705882%,23.921569%,33.72549%);fill-opacity:1;" d="M 224.6875 252.042969 L 198.898438 265.054688 L 169.425781 260.800781 L 172.246094 273.148438 L 197.160156 277.484375 L 220.71875 266.222656 Z M 224.6875 252.042969 "/>
<path style=" stroke:none;fill-rule:nonzero;fill:rgb(90.196078%,90.196078%,90.196078%);fill-opacity:1;" d="M 68.007812 111.785156 L 69.453125 107.738281 L 96.398438 112.367188 L 119.289062 100.800781 L 120.449219 103.980469 L 95.53125 118.726562 Z M 68.007812 111.785156 "/>
<path style=" stroke:none;fill-rule:nonzero;fill:rgb(24.705882%,23.921569%,33.72549%);fill-opacity:1;" d="M 121.605469 101.957031 L 95.820312 114.96875 L 66.347656 110.71875 L 69.164062 123.0625 L 94.082031 127.402344 L 117.636719 116.136719 Z M 121.605469 101.957031 "/>
</g>
</svg>
